<svg width="512" height="512" viewBox="0 0 24 24" xmlns="http://www.w3.org/2000/svg">
    <rect width="24" height="24" fill="#0f172a"/>
    <g fill="#4f46e5">
        <path d="M12 14l9-5-9-5-9 5 9 5z"/>
        <path d="M12 14l6.16-3.422a12.083 12.083 0 01.665 6.479A11.952 11.952 0 0012 20.055a11.952 11.952 0 00-6.824-2.998 12.078 12.078 0 01.665-6.479L12 14z"/>
    </g>
    <g stroke="#ffffff" stroke-width="1" stroke-linecap="round" stroke-linejoin="round" fill="none">
         <path d="M12 14l9-5-9-5-9 5 9 5zm0 0l6.16-3.422a12.083 12.083 0 01.665 6.479A11.952 11.952 0 0012 20.055a11.952 11.952 0 00-6.824-2.998 12.078 12.078 0 01.665-6.479L12 14zm-4 6v-7.5l4-2.222 4 2.222V20"/>
    </g>
</svg>
